<svg width="260" height="60" viewBox="0 0 260 60" fill="none" xmlns="http://www.w3.org/2000/svg">
  <!-- Icon on dark background -->
  <rect width="52" height="52" rx="13" y="4" fill="#f97316"/>
  <g transform="translate(4, 5.5) scale(0.37)">
    <rect x="30" y="24" width="8" height="72" rx="4" fill="white"/>
    <rect x="24" y="24" width="4" height="20" rx="2" fill="white" opacity="0.85"/>
    <rect x="33" y="24" width="4" height="20" rx="2" fill="white" opacity="0.85"/>
    <rect x="42" y="24" width="4" height="20" rx="2" fill="white" opacity="0.85"/>
    <rect x="24" y="42" width="22" height="5" rx="2.5" fill="white" opacity="0.7"/>
    <path d="M44 60 L82 28 C84 26 88 26 90 28 L92 30 C94 32 94 36 92 38 L50 60" fill="white" opacity="0.95"/>
    <path d="M44 62 L86 94 C88 96 88 100 86 102 L84 104 C82 106 78 106 76 104 L44 68" fill="white" opacity="0.9"/>
  </g>
  <!-- Wordmark — white for dark backgrounds -->
  <text x="64" y="42" font-family="system-ui, -apple-system, 'Segoe UI', Roboto, sans-serif" font-weight="800" font-size="36" letter-spacing="-1">
    <tspan fill="white">K</tspan><tspan fill="#f97316">bouffe</tspan>
  </text>
</svg>
