<svg width="960" height="860" viewBox="0 0 960 860" fill="none" xmlns="http://www.w3.org/2000/svg">
  <rect width="960" height="860" rx="48" fill="#140F0B"/>
  <circle cx="156" cy="150" r="110" fill="#22C55E" fill-opacity="0.12"/>
  <circle cx="808" cy="710" r="148" fill="#F97316" fill-opacity="0.14"/>

  <rect x="86" y="88" width="296" height="196" rx="32" fill="#1F1720" stroke="#34432E" stroke-width="2"/>
  <text x="122" y="138" fill="#F8FAFC" font-family="Arial, sans-serif" font-size="30" font-weight="700">WhatsApp</text>
  <text x="122" y="182" fill="#BBF7D0" font-family="Arial, sans-serif" font-size="18">Statut du jour</text>
  <rect x="122" y="208" width="224" height="24" rx="12" fill="#14532D"/>
  <text x="138" y="225" fill="#DCFCE7" font-family="Arial, sans-serif" font-size="15">Menu du midi disponible</text>
  <text x="122" y="260" fill="#CBD5E1" font-family="Arial, sans-serif" font-size="17">Lien Kbouffe dans le statut et en DM</text>

  <path d="M410 186C462 186 482 186 512 186" stroke="#F97316" stroke-width="10" stroke-linecap="round" stroke-dasharray="18 18"/>
  <path d="M500 166L540 186L500 206" stroke="#F97316" stroke-width="10" stroke-linecap="round" stroke-linejoin="round"/>

  <rect x="540" y="80" width="334" height="220" rx="36" fill="#21160F" stroke="#4A3526" stroke-width="2"/>
  <text x="582" y="132" fill="#F8FAFC" font-family="Arial, sans-serif" font-size="30" font-weight="700">Boutique Kbouffe</text>
  <rect x="582" y="168" width="248" height="30" rx="15" fill="#3B2A1F"/>
  <text x="602" y="188" fill="#FDBA74" font-family="Arial, sans-serif" font-size="16">kbouffe.com/mama-awa</text>
  <rect x="582" y="220" width="120" height="48" rx="16" fill="#F97316" fill-opacity="0.16"/>
  <text x="610" y="249" fill="#FCD34D" font-family="Arial, sans-serif" font-size="17" font-weight="700">QR code</text>
  <rect x="716" y="220" width="114" height="48" rx="16" fill="#22C55E" fill-opacity="0.12"/>
  <text x="744" y="249" fill="#BBF7D0" font-family="Arial, sans-serif" font-size="17" font-weight="700">MoMo</text>

  <rect x="118" y="364" width="338" height="190" rx="34" fill="#20160F" stroke="#433126" stroke-width="2"/>
  <text x="156" y="416" fill="#F8FAFC" font-family="Arial, sans-serif" font-size="28" font-weight="700">Commande claire</text>
  <text x="156" y="454" fill="#FDBA74" font-family="Arial, sans-serif" font-size="18">12h17 • Bureau Akwa</text>
  <rect x="156" y="484" width="262" height="22" rx="11" fill="#33261E"/>
  <rect x="156" y="520" width="210" height="22" rx="11" fill="#33261E"/>
  <text x="156" y="574" fill="#CBD5E1" font-family="Arial, sans-serif" font-size="17">6 plats • 31 500 FCFA • cuisine informee</text>

  <path d="M480 458C540 458 574 458 620 458" stroke="#22C55E" stroke-width="10" stroke-linecap="round" stroke-dasharray="18 18"/>
  <path d="M606 438L646 458L606 478" stroke="#22C55E" stroke-width="10" stroke-linecap="round" stroke-linejoin="round"/>

  <rect x="644" y="350" width="202" height="234" rx="34" fill="#122019" stroke="#245237" stroke-width="2"/>
  <text x="678" y="406" fill="#F8FAFC" font-family="Arial, sans-serif" font-size="28" font-weight="700">MoMo recu</text>
  <text x="678" y="444" fill="#BBF7D0" font-family="Arial, sans-serif" font-size="18">Paiement confirme</text>
  <rect x="678" y="474" width="134" height="40" rx="14" fill="#22C55E" fill-opacity="0.16"/>
  <text x="706" y="500" fill="#DCFCE7" font-family="Arial, sans-serif" font-size="16" font-weight="700">Associe</text>
  <text x="678" y="554" fill="#CBD5E1" font-family="Arial, sans-serif" font-size="17">Plus besoin de chercher une capture d'ecran dans les messages.</text>

  <rect x="102" y="638" width="744" height="130" rx="34" fill="#19120D" stroke="#35261E" stroke-width="2"/>
  <text x="138" y="690" fill="#F8FAFC" font-family="Arial, sans-serif" font-size="28" font-weight="700">Resultat</text>
  <text x="138" y="728" fill="#E2E8F0" font-family="Arial, sans-serif" font-size="20">Le meme telephone sert a vendre, encaisser et mieux gerer le service.</text>
</svg>